<!--?xml version="1.0" encoding="utf-8"?-->
<!-- Generator: Adobe Illustrator 18.1.1, SVG Export Plug-In . SVG Version: 6.00 Build 0)  -->

<svg version="1.1" id="_x32_" xmlns="http://www.w3.org/2000/svg" xmlns:xlink="http://www.w3.org/1999/xlink" x="0px" y="0px" viewBox="0 0 512 512" style="width: 48px; height: 48px; opacity: 1;" xml:space="preserve">
<style type="text/css">
	.st0{fill:#4B4B4B;}
</style>
<g>
	<path class="st0" d="M410.126,58.44c-6.568-10.527-16.551-23.442-50.389-25.61c-37.702-2.439-41.132-30.833-90.228-32.75
		c-61.967-2.439-70.092,51.77-92.94,69.144c-43.116,32.75-50.778,88.334-55.884,154.018c-6.017,77.115,5.157,125.939,18.315,156.354
		c-11.432,19.328-18.756,32.288-34.609,42.682c-15.788,10.337,40.376,14.312,61.665-0.566c0.14,0.155,0.302,0.316,0.427,0.47
		c12.121,13.334,13.458,31.524,14.81,41.236c0.581,4.187,0.683,7.802,2.064,10.564c0.698,12.841,16.515,20.996,34.962,22.178
		c18.851,1.205,18.851,16.985,26.932,15.773c8.081-1.219,6.729-12.136,2.696-14.568c5.392-2.41,20.202,10.924,28.283,4.863
		c8.088-6.068,0-12.144,0-12.144s0,0,10.778,1.219c10.777,1.22,9.425-8.492,2.689-14.546c-6.73-6.068-18.859-7.273-40.405-3.643
		c-13.716,2.314-20.857-2.234-24.266-5.862c1.08-2.998,1.756-6.656,2.072-11.13c1.337-19.388-2.704-19.388,5.37-19.388
		c3.21,0,15.118-0.778,30.076-3.82l0.83,15.148c-0.647,0.852-1.029,1.822-1.029,2.954c0,2.123,0.536,4.084,1.514,5.892l0.008,0.036
		l0.014-0.007c4.143,7.654,16.221,12.416,29.9,13.231c16.92,1.006,16.92,14.112,24.17,13.113c7.251-1.014,6.046-10.087,2.417-12.107
		c4.834-2.012,18.139,9.066,25.389,4.026c7.251-5.032,0-10.072,0-10.072s0,0,9.668,1.006c9.675,0.999,8.463-7.052,2.417-12.092
		c-6.039-5.047-16.919-6.054-36.262-3.026c-10.874,1.704-17.162-1.058-20.578-3.806l1.432-0.375v-26.866
		c11.314-5.458,21.871-12.636,29.724-22.061c28.284-33.948,55.862-89.751,49.824-167.388
		c-4.239-54.554-30.767-112.356-39.061-124.919c-2.218-3.364-4.034-6.538-5.429-9.513c-6.774-14.23-4.378-23.869,6.744-26.866
		c12.9-3.504,36.467-18.807,64.296-8.72C409.766,60.937,410.876,59.645,410.126,58.44z M294.354,440.6l-7.53,1.984
		c-4.981,0.014-10.836,0.345-15.574,1.469l-0.712-12.915c7.669-1.881,15.816-4.35,23.817-7.596V440.6z M334.495,111.172
		c6.737,10.211,33.22,66.206,37.415,120.136c2.645,34.028-1.227,66.316-11.512,95.974c-8.257,23.809-20.379,45.401-36.004,64.156
		c-24.207,29.084-81.619,35.204-91.926,35.204c-3.88,0-8.287,0-11.924,3.762c-3.658,3.798-3.496,8.382-3.357,12.43
		c0.095,2.821,0.242,6.656-0.176,12.592c-0.103,1.602-0.272,3.049-0.485,4.349c-4.298,1.367-8.522,2.513-12.665,3.424
		c-4.275,0.279-8.595,0.867-12.18,1.954c-0.11-1-0.228-2.042-0.382-3.13c-0.118-0.845-0.236-1.748-0.36-2.696
		c-1.403-10.865-3.739-28.952-16.448-43.351c8.242-16.706-0.771-44.21-8.83-68.813c-0.778-2.373-1.638-5.018-2.468-7.618
		c5.128,6.274,10.196,15.971,13.766,22.774c7.7,14.708,13.254,25.33,23.906,25.33c1.726,0,3.424-0.323,5.047-0.97l1.572-0.632
		l1.278-1.116c100.704-87.276,51.292-200.733,35.05-238.002c-1.617-3.732-3.291-7.582-3.652-8.853
		c-2.248-8.118-0.734-16.206,4.261-22.774c5.62-7.398,14.686-11.813,24.236-11.813c2.601,0,5.209,0.33,7.743,0.984
		c8.426,2.16,19.248,3.262,32.133,3.262c7.178,0,14.958-0.323,23.193-0.984C332.584,108.19,333.503,109.674,334.495,111.172z" style="fill: rgb(255, 255, 255);"></path>
</g>
</svg>
